<?xml version="1.0" encoding="utf-8"?>
<!-- Generator: Adobe Illustrator 22.1.0, SVG Export Plug-In . SVG Version: 6.00 Build 0)  -->
<svg version="1.1" xmlns="http://www.w3.org/2000/svg" xmlns:xlink="http://www.w3.org/1999/xlink" x="0px" y="0px"
	 viewBox="0 0 160.6 56" style="enable-background:new 0 0 160.6 56;" xml:space="preserve">
<style type="text/css">
	.st0{fill:#FFFFFF;}
</style>
<g id="Capa_1">
</g>
<g id="Capa_2">
	<g>
		<g>
			<g>
				<g>
					<path class="st0" d="M28.9,49.3h-25c-1,0-1.9,0.9-1.9,2v1.4c0,1.1,0.8,2,1.9,2h32.4L28.9,49.3z"/>
				</g>
				<g>
					<path class="st0" d="M65.6,49.3h28.1c1.2,0,2.1,0.9,2.1,2v1.4c0,1.1-1,2-2.1,2H57.5L65.6,49.3z"/>
				</g>
				<g>
					<path class="st0" d="M65.6,9.3h28.1c1.2,0,2.1-0.9,2.1-2V5.9c0-1.1-1-2-2.1-2H57.5L65.6,9.3z"/>
				</g>
				<g>
					<path class="st0" d="M4.6,54.6L4.6,54.6c-1.4,0-2.5-1.1-2.5-2.5l0-45.7c0-1.4,1.1-2.5,2.5-2.5h0c1.4,0,2.5,1.1,2.5,2.5v45.7
						C7.1,53.5,6,54.6,4.6,54.6z"/>
				</g>
				<g>
					<path class="st0" d="M93.3,14L93.3,14c-1.4,0-2.5-1.1-2.5-2.5V6.4c0-1.4,1.1-2.5,2.5-2.5h0c1.4,0,2.5,1.1,2.5,2.5v5.1
						C95.9,12.9,94.7,14,93.3,14z"/>
				</g>
				<g>
					<path class="st0" d="M95.9,38.1L95.9,38.1c0,1.5-1.2,2.7-2.7,2.7h-5.5c-1.5,0-2.7-1.2-2.7-2.7v0c0-1.5,1.2-2.7,2.7-2.7h5.5
						C94.7,35.4,95.9,36.6,95.9,38.1z"/>
				</g>
				<g>
					<g>
						<path class="st0" d="M43.3,51.9c-2.4,0-4.8-0.6-7-1.9c-2.1-1.2-3.9-2.8-5.5-5c-3.2-4.3-5-9.9-5-15.9s1.8-11.6,5-15.9
							c1.6-2.1,3.5-3.8,5.5-5c2.2-1.2,4.5-1.9,7-1.9c1.1,0,2,1,2,2.2c0,1.2-0.9,2.2-2,2.2c-7.4,0-13.4,8.2-13.4,18.3
							s6,18.3,13.4,18.3c1.1,0,2,1,2,2.2C45.3,51,44.4,51.9,43.3,51.9z"/>
					</g>
					<g>
						<path class="st0" d="M51.2,51.9c-1.1,0-2-1-2-2.2c0-1.2,0.9-2.2,2-2.2c7.4,0,13.4-8.2,13.4-18.3S58.5,11,51.2,11
							c-1.1,0-2-1-2-2.2c0-1.2,0.9-2.2,2-2.2c2.4,0,4.8,0.6,7,1.9c2.1,1.2,3.9,2.8,5.5,5c3.2,4.3,5,9.9,5,15.9s-1.8,11.6-5,15.9
							c-1.6,2.1-3.5,3.8-5.5,5C55.9,51.3,53.6,51.9,51.2,51.9z"/>
					</g>
					<g>
						<path class="st0" d="M52.7,8.7L52.7,8.7c0,1.2-1,2.2-2.2,2.2h-6.4c-1.2,0-2.2-1-2.2-2.2v0c0-1.2,1-2.2,2.2-2.2h6.4
							C51.7,6.6,52.7,7.5,52.7,8.7z"/>
					</g>
					<g>
						<path class="st0" d="M52.7,49.9L52.7,49.9c0,1.2-1,2.2-2.2,2.2h-6.4c-1.2,0-2.2-1-2.2-2.2v0c0-1.2,1-2.2,2.2-2.2h6.4
							C51.7,47.7,52.7,48.7,52.7,49.9z"/>
					</g>
				</g>
				<g>
					<path class="st0" d="M93.3,54.6L93.3,54.6c-1.4,0-2.5-1.1-2.5-2.5V38.7c0-1.4,1.1-2.5,2.5-2.5h0c1.4,0,2.5,1.1,2.5,2.5v13.4
						C95.9,53.5,94.7,54.6,93.3,54.6z"/>
				</g>
			</g>
			<path class="st0" d="M14.9,4.8H9.6c-1.1,0-2-0.9-2-2v0c0-1.1,0.9-2,2-2h5.3c1.1,0,2,0.9,2,2v0C16.9,3.9,16,4.8,14.9,4.8z"/>
		</g>
		<g>
			<path class="st0" d="M103.4,20.4V5.5h2.9v11.9h3.4v2.9H103.4z"/>
			<path class="st0" d="M109.6,20.4l3.5-14.8h3.1l3.3,14.8h-3l-0.5-2.6h-3l-0.5,2.6H109.6z M113.6,15.5h2c-0.2-1-0.4-2.1-0.5-3.3
				c-0.2-1.1-0.3-2.3-0.4-3.6c-0.1,1.1-0.3,2.2-0.5,3.4S113.8,14.3,113.6,15.5z"/>
			<path class="st0" d="M129.7,5.5v9.3c0,1.1,0,1.9-0.1,2.4c-0.1,0.5-0.2,0.9-0.3,1.2c-0.4,0.7-0.9,1.2-1.6,1.6
				c-0.7,0.3-1.6,0.5-2.6,0.5c-1.1,0-2-0.2-2.6-0.5c-0.7-0.3-1.2-0.9-1.6-1.6c-0.2-0.3-0.3-0.7-0.3-1.2c-0.1-0.5-0.1-1.3-0.1-2.4
				v-0.4V5.5h3v9.6c0,1.2,0.1,2,0.4,2.3s0.7,0.5,1.3,0.5c0.6,0,1.1-0.2,1.3-0.5s0.4-1.1,0.4-2.3V5.5H129.7z"/>
			<path class="st0" d="M132,20.4V5.5h3.1c1.7,0,2.9,0.3,3.7,1c0.8,0.7,1.1,1.7,1.1,3.2c0,1.1-0.2,1.9-0.6,2.5
				c-0.4,0.6-1,1.1-1.8,1.3l2.8,6.8h-3.1l-2.4-6.1v6.1H132z M134.8,12c0,0,0.1,0,0.2,0s0.1,0,0.2,0c0.6,0,1.1-0.2,1.5-0.5
				c0.3-0.4,0.5-0.9,0.5-1.6c0-0.7-0.1-1.2-0.4-1.6c-0.3-0.3-0.8-0.5-1.4-0.5c-0.1,0-0.2,0-0.2,0c-0.1,0-0.1,0-0.2,0L134.8,12z"/>
			<path class="st0" d="M140.3,20.4l3.5-14.8h3.1l3.3,14.8h-3l-0.5-2.6h-3l-0.5,2.6H140.3z M144.2,15.5h2c-0.2-1-0.4-2.1-0.5-3.3
				c-0.2-1.1-0.3-2.3-0.4-3.6c-0.1,1.1-0.3,2.2-0.5,3.4S144.4,14.3,144.2,15.5z"/>
		</g>
		<g>
			<path class="st0" d="M107.6,34.5h5.5c0,0.1,0,0.2,0,0.3c0,0.2,0,0.3,0,0.3c0,2.5-0.5,4.4-1.4,5.8c-0.9,1.4-2.2,2.1-3.8,2.1
				c-1.6,0-2.8-0.7-3.7-2s-1.4-3.2-1.4-5.6c0-2.4,0.5-4.2,1.4-5.6c0.9-1.4,2.2-2,3.9-2c1.1,0,2.1,0.3,2.8,1s1.3,1.6,1.7,2.8
				l-2.7,1.2c-0.1-0.7-0.3-1.3-0.7-1.7c-0.3-0.4-0.7-0.5-1.3-0.5c-0.8,0-1.4,0.4-1.7,1.2c-0.4,0.8-0.6,2-0.6,3.6
				c0,1.6,0.2,2.8,0.6,3.6c0.4,0.8,1,1.2,1.7,1.2c0.7,0,1.2-0.3,1.5-0.8c0.4-0.6,0.6-1.3,0.6-2.3h-2.6V34.5z"/>
			<path class="st0" d="M113.7,42.9l3.5-14.8h3.1l3.3,14.8h-3l-0.5-2.6h-3l-0.5,2.6H113.7z M117.7,38h2c-0.2-1-0.4-2.1-0.5-3.3
				c-0.2-1.1-0.3-2.3-0.4-3.6c-0.1,1.1-0.3,2.2-0.5,3.4C118,35.6,117.9,36.8,117.7,38z"/>
			<path class="st0" d="M124.7,42.9V28h3.1c1.7,0,2.9,0.3,3.7,1s1.1,1.7,1.1,3.2c0,1.1-0.2,1.9-0.6,2.5s-1,1.1-1.8,1.3l2.8,6.8h-3.1
				l-2.4-6.1v6.1H124.7z M127.5,34.5c0,0,0.1,0,0.2,0c0.1,0,0.1,0,0.2,0c0.6,0,1.1-0.2,1.5-0.5c0.3-0.4,0.5-0.9,0.5-1.6
				c0-0.7-0.1-1.2-0.4-1.6c-0.3-0.3-0.8-0.5-1.4-0.5c-0.1,0-0.2,0-0.2,0c-0.1,0-0.1,0-0.2,0L127.5,34.5z"/>
			<path class="st0" d="M141.8,42.7c-0.3,0.1-0.6,0.2-0.9,0.3s-0.6,0.1-0.9,0.1c-1.9,0-3.4-0.7-4.6-2.1c-1.2-1.4-1.8-3.2-1.8-5.4
				c0-2.3,0.6-4.2,1.7-5.6c1.2-1.4,2.7-2.1,4.5-2.1c0.3,0,0.7,0,1,0.1c0.3,0.1,0.6,0.1,0.9,0.3V31c-0.3-0.1-0.6-0.2-0.8-0.3
				c-0.3-0.1-0.5-0.1-0.8-0.1c-1,0-1.8,0.4-2.4,1.3c-0.6,0.9-0.9,2-0.9,3.5c0,1.4,0.3,2.5,1,3.4c0.6,0.9,1.4,1.3,2.4,1.3
				c0.3,0,0.5,0,0.8-0.1c0.3-0.1,0.5-0.1,0.8-0.3V42.7z"/>
			<path class="st0" d="M148.2,22.9l-3,3.8h-1.4l1.9-3.8H148.2z M143.8,42.9V28h3v14.8H143.8z"/>
			<path class="st0" d="M148.1,42.9l3.5-14.8h3.1l3.3,14.8h-3l-0.5-2.6h-3l-0.5,2.6H148.1z M152,38h2c-0.2-1-0.4-2.1-0.5-3.3
				c-0.2-1.1-0.3-2.3-0.4-3.6c-0.1,1.1-0.3,2.2-0.5,3.4C152.4,35.6,152.2,36.8,152,38z"/>
		</g>
		<g>
			<path class="st0" d="M103.2,49.6c0.3,0.2,0.4,0.5,0.4,0.9s-0.1,0.7-0.4,0.9c-0.3,0.2-0.6,0.3-1,0.3h-0.8v1h-0.5v-3.4h1.3
				C102.6,49.3,102.9,49.4,103.2,49.6z M102.8,51.1c0.2-0.1,0.2-0.3,0.2-0.6s-0.1-0.4-0.2-0.6c-0.2-0.1-0.4-0.2-0.7-0.2h-0.8v1.5
				h0.8C102.4,51.3,102.7,51.2,102.8,51.1z"/>
			<path class="st0" d="M109.1,49.3v3.4h-0.5v-1.5h-2v1.5h-0.5v-3.4h0.5v1.5h2v-1.5H109.1z"/>
			<path class="st0" d="M112.7,52.5c-0.3-0.2-0.5-0.4-0.6-0.6s-0.2-0.6-0.2-0.9s0.1-0.6,0.2-0.9s0.4-0.5,0.6-0.6s0.6-0.2,0.9-0.2
				c0.3,0,0.6,0.1,0.9,0.2s0.5,0.4,0.6,0.6c0.2,0.3,0.2,0.6,0.2,0.9c0,0.3-0.1,0.6-0.2,0.9c-0.2,0.3-0.4,0.5-0.6,0.6
				c-0.3,0.2-0.6,0.2-0.9,0.2C113.3,52.8,113,52.7,112.7,52.5z M114.3,52.2c0.2-0.1,0.4-0.3,0.5-0.5s0.2-0.4,0.2-0.7
				s-0.1-0.5-0.2-0.7s-0.3-0.4-0.5-0.5c-0.2-0.1-0.4-0.2-0.7-0.2c-0.2,0-0.5,0.1-0.7,0.2c-0.2,0.1-0.4,0.3-0.5,0.5s-0.2,0.4-0.2,0.7
				s0.1,0.5,0.2,0.7s0.3,0.4,0.5,0.5c0.2,0.1,0.4,0.2,0.7,0.2C113.9,52.3,114.1,52.3,114.3,52.2z"/>
			<path class="st0" d="M118.8,49.7h-1.2v-0.4h2.8v0.4h-1.2v3h-0.5V49.7z"/>
			<path class="st0" d="M123.4,52.5c-0.3-0.2-0.5-0.4-0.6-0.6s-0.2-0.6-0.2-0.9s0.1-0.6,0.2-0.9s0.4-0.5,0.6-0.6s0.6-0.2,0.9-0.2
				c0.3,0,0.6,0.1,0.9,0.2s0.5,0.4,0.6,0.6c0.2,0.3,0.2,0.6,0.2,0.9c0,0.3-0.1,0.6-0.2,0.9c-0.2,0.3-0.4,0.5-0.6,0.6
				c-0.3,0.2-0.6,0.2-0.9,0.2C124,52.8,123.7,52.7,123.4,52.5z M125,52.2c0.2-0.1,0.4-0.3,0.5-0.5s0.2-0.4,0.2-0.7s-0.1-0.5-0.2-0.7
				s-0.3-0.4-0.5-0.5c-0.2-0.1-0.4-0.2-0.7-0.2c-0.2,0-0.5,0.1-0.7,0.2c-0.2,0.1-0.4,0.3-0.5,0.5S123,50.8,123,51s0.1,0.5,0.2,0.7
				s0.3,0.4,0.5,0.5c0.2,0.1,0.4,0.2,0.7,0.2C124.6,52.3,124.8,52.3,125,52.2z"/>
			<path class="st0" d="M131.2,51h0.5v1.3c-0.2,0.1-0.4,0.2-0.6,0.3c-0.2,0.1-0.5,0.1-0.7,0.1c-0.3,0-0.7-0.1-0.9-0.2
				c-0.3-0.2-0.5-0.4-0.6-0.6c-0.2-0.3-0.2-0.6-0.2-0.9c0-0.3,0.1-0.6,0.2-0.9s0.4-0.5,0.7-0.6c0.3-0.1,0.6-0.2,0.9-0.2
				c0.3,0,0.5,0,0.7,0.1c0.2,0.1,0.4,0.2,0.6,0.4l-0.3,0.3c-0.3-0.3-0.6-0.4-1-0.4c-0.3,0-0.5,0.1-0.7,0.2c-0.2,0.1-0.4,0.3-0.5,0.5
				c-0.1,0.2-0.2,0.4-0.2,0.7c0,0.2,0.1,0.5,0.2,0.7c0.1,0.2,0.3,0.4,0.5,0.5c0.2,0.1,0.4,0.2,0.7,0.2c0.3,0,0.6-0.1,0.8-0.2V51z"/>
			<path class="st0" d="M136.8,52.7l-0.7-1c-0.1,0-0.2,0-0.2,0H135v1h-0.5v-3.4h1.3c0.4,0,0.8,0.1,1,0.3c0.3,0.2,0.4,0.5,0.4,0.9
				c0,0.3-0.1,0.5-0.2,0.7c-0.1,0.2-0.3,0.3-0.6,0.4l0.8,1.1H136.8z M136.6,51.1c0.2-0.1,0.2-0.3,0.2-0.6s-0.1-0.4-0.2-0.6
				c-0.2-0.1-0.4-0.2-0.7-0.2H135v1.5h0.8C136.2,51.3,136.4,51.2,136.6,51.1z"/>
			<path class="st0" d="M142.2,51.9h-1.8l-0.4,0.9h-0.5l1.5-3.4h0.5l1.5,3.4h-0.5L142.2,51.9z M142,51.5l-0.7-1.7l-0.7,1.7H142z"/>
			<path class="st0" d="M147.9,49.6c0.3,0.2,0.4,0.5,0.4,0.9s-0.1,0.7-0.4,0.9c-0.3,0.2-0.6,0.3-1,0.3H146v1h-0.5v-3.4h1.3
				C147.3,49.3,147.6,49.4,147.9,49.6z M147.5,51.1c0.2-0.1,0.2-0.3,0.2-0.6s-0.1-0.4-0.2-0.6c-0.2-0.1-0.4-0.2-0.7-0.2H146v1.5h0.8
				C147.1,51.3,147.4,51.2,147.5,51.1z"/>
			<path class="st0" d="M153.8,49.3v3.4h-0.5v-1.5h-2v1.5h-0.5v-3.4h0.5v1.5h2v-1.5H153.8z"/>
			<path class="st0" d="M158.1,51.5v1.2h-0.5v-1.2l-1.4-2.2h0.5l1.1,1.8l1.1-1.8h0.5L158.1,51.5z"/>
		</g>
	</g>
</g>
</svg>
